<svg id="Layer_1" data-name="Layer 1" xmlns="http://www.w3.org/2000/svg" viewBox="0 0 80 80"><defs><style>.cls-1{fill:#fff;}.cls-2{opacity:0.5;}.cls-3{fill:#dfc7b7;}.cls-4{fill:#734a3e;}.cls-5{fill:#623f33;}.cls-6{fill:#f6b47b;}.cls-7{fill:#814c3a;}.cls-8{fill:#e2a071;}.cls-9{fill:#fdc88e;}.cls-10{fill:#512c1d;}.cls-11{fill:#fcbc85;}.cls-12{fill:#f7945e;}.cls-13{fill:#3b2519;}</style></defs><title>a</title><circle id="_Path_" data-name="&lt;Path&gt;" class="cls-1" cx="40" cy="40" r="40"/><g id="_Group_" data-name="&lt;Group&gt;" class="cls-2"><path class="cls-3" d="M40,1A39,39,0,1,1,1,40,39,39,0,0,1,40,1m0-1A40,40,0,1,0,80,40,40,40,0,0,0,40,0h0Z"/></g><path class="cls-4" d="M25.59,33.7s-1.8-7.37-1.8-9.91c0-5.44,4.5-5.4,4.5-5.4h0C31,13.9,40.9,13.88,40.9,13.88l0.9,1.8a52.19,52.19,0,0,1,11.71-1.8,12.3,12.3,0,0,1,1.8,4.5c1,5.6-.9,15.31-0.9,15.31H25.59Zm0,0"/><path class="cls-5" d="M40.9,13.88s-10,0-12.61,4.5h0s-4.5,0-4.5,5.4c0,2.54,1.8,9.91,1.8,9.91H31.4l5.89-8.11A74.74,74.74,0,0,0,53.51,13.88a52.19,52.19,0,0,0-11.71,1.8Zm0,0"/><path class="cls-6" d="M58,61.49l-0.08-.74a0.53,0.53,0,0,0-.59-0.47h0L56.49,54a3.6,3.6,0,0,0-2.44-3l-5.18-1.73L49,49l-2-1.3A0.9,0.9,0,0,0,45.8,48l-0.27.41a1.79,1.79,0,0,1-.13-0.66V44.8l3.88-1.62a5.4,5.4,0,0,0,3.33-5V37.3a2.7,2.7,0,0,0,2-4.54c0.45-2.57,1.58-9.82.73-14.37a12.3,12.3,0,0,0-1.8-4.5,52.19,52.19,0,0,0-11.71,1.8l-0.9-1.8s-10,0-12.61,4.5H28.1l-0.16,0-0.13,0-0.14,0-0.16,0a4.46,4.46,0,0,0-3.57,3.71l0,0.21c0,0.21-.06.43-0.08,0.66s0,0.47,0,.73,0,0.43,0,.68,0,0.53.09,0.82l0,0.18c0.18,1.32.49,3,.8,4.43l0,0.2c0.21,1,.41,1.89.57,2.54l0,0.16a2.7,2.7,0,0,0,2,4.5v0.9a5.4,5.4,0,0,0,3.33,5L34.6,44.8v2.9a1.8,1.8,0,0,1-.13.66L34.2,48a0.9,0.9,0,0,0-1.25-.25L31,49l0.13,0.26L25.94,51a3.6,3.6,0,0,0-2.44,3l-0.79,6.33h0a0.53,0.53,0,0,0-.59.47L22,61.49a0.53,0.53,0,0,0,.47.59l1.32,0.15v2.1a1.8,1.8,0,0,0,1.8,1.8H54.41a1.8,1.8,0,0,0,1.8-1.8v-2.1l1.32-.15A0.53,0.53,0,0,0,58,61.49h0Zm0,0"/><path class="cls-7" d="M56.49,54a3.6,3.6,0,0,0-2.44-3L48.23,49C47.38,51,42.7,52.61,42.7,52.61l-1.8,1.8H39.1l-1.8-1.8S32.62,51,31.77,49L25.94,51a3.6,3.6,0,0,0-2.44,3l-0.86,6.85,7.44,0.8v4.5H49.91v-4.5h7.54Zm0,0"/><path class="cls-4" d="M25.59,33.7s-1.8-7.37-1.8-9.91c0-5.44,4.5-5.4,4.5-5.4h0C30.9,14,40.9,13.88,40.9,13.88l0.9,1.8a52.19,52.19,0,0,1,11.71-1.8,12.3,12.3,0,0,1,1.8,4.5c1,5.6-.9,15.31-0.9,15.31H25.59Zm0,0"/><path class="cls-5" d="M40.9,13.88s-10,0-12.61,4.5h0s-4.5,0-4.5,5.4c0,2.54,1.8,9.91,1.8,9.91H31.4l5.89-8.11A74.74,74.74,0,0,0,53.51,13.88a52.19,52.19,0,0,0-11.71,1.8Zm0,0"/><path class="cls-8" d="M45.4,44.73H34.6v3a1.79,1.79,0,0,1-.9,1.54A12.23,12.23,0,0,0,45.4,44.73h0Zm0,0"/><path class="cls-9" d="M52.61,31.89v-1.8a4.5,4.5,0,0,0-4.5-4.5H31.89a4.5,4.5,0,0,0-4.5,4.5v1.8a2.7,2.7,0,1,0,0,5.4v0.9a5.4,5.4,0,0,0,3.33,5l5.82,2.42a9,9,0,0,0,6.93,0l5.82-2.42a5.4,5.4,0,0,0,3.33-5V37.3a2.7,2.7,0,0,0,0-5.4h0Zm0,0"/><path class="cls-10" d="M30.09,62.29v-2a3.6,3.6,0,0,0-.88-2.36l-5-5.72A3.59,3.59,0,0,0,23.51,54l-0.94,7.53c1.43,0.09,5.24.53,7.53,0.81h0Zm0,0"/><path class="cls-10" d="M30.09,61.11l-7.42-.82a0.53,0.53,0,0,0-.59.47L22,61.49a0.53,0.53,0,0,0,.47.59l7.62,0.85V61.11Zm0,0"/><path class="cls-10" d="M49.91,62.29v-2a3.6,3.6,0,0,1,.88-2.36l5-5.72A3.6,3.6,0,0,1,56.49,54l0.94,7.53c-1.43.09-5.24,0.53-7.53,0.81h0Zm0,0"/><path class="cls-10" d="M49.91,61.11l7.42-.82a0.53,0.53,0,0,1,.59.47L58,61.49a0.53,0.53,0,0,1-.47.59l-7.62.85V61.11Zm0,0"/><path class="cls-10" d="M34.2,48l3.1,4.65-2.7,3.6L31,49l2-1.3A0.9,0.9,0,0,1,34.2,48h0Zm0,0"/><path class="cls-10" d="M45.8,48l-3.1,4.65,2.7,3.6L49,49l-2-1.3A0.9,0.9,0,0,0,45.8,48h0Zm0,0"/><path class="cls-10" d="M40,61.61a0.9,0.9,0,0,1-.9-0.9v-6.3h1.8v6.3a0.9,0.9,0,0,1-.9.9h0Zm0,0"/><path class="cls-6" d="M32.12,41.32A4.22,4.22,0,0,1,31,38.43V28.1c3.16-.35,10.06-1.19,17.11-2.51H31.89a4.25,4.25,0,0,0-.9.1h0a4.5,4.5,0,0,0-3.6,4.41v1.8a2.7,2.7,0,1,0,0,5.4v0.9a5.4,5.4,0,0,0,3.33,5l5.82,2.42a8.94,8.94,0,0,0,.87.31,37.58,37.58,0,0,1-5.29-4.6h0Zm0,0"/><path class="cls-11" d="M40.09,37.57c-1.51,0-2.41-1.13-2.41-.58s0.44,1.58,2.41,1.58,2.41-1,2.41-1.58-0.91.58-2.41,0.58h0Zm0,0"/><path class="cls-11" d="M40.09,42.58c-0.52,0-.84-0.39-0.84-0.2s0.15,0.55.84,0.55,0.83-.36.83-0.55-0.31.2-.83,0.2h0Zm0,0"/><path class="cls-12" d="M40.09,41.19c-2.39,0-3.83-1-3.83-.73s0.69,1.22,3.83,1.22,3.83-1,3.83-1.22-1.44.73-3.83,0.73h0Zm0,0"/><path class="cls-13" d="M48.25,33.3a1.53,1.53,0,1,1-1.52-1.67,1.6,1.6,0,0,1,1.52,1.67h0Zm0,0"/><path class="cls-1" d="M46.51,32.56a0.46,0.46,0,1,1-.46-0.46,0.46,0.46,0,0,1,.46.46h0Zm0,0"/><path class="cls-13" d="M34.9,33.3a1.53,1.53,0,1,1-1.52-1.67A1.6,1.6,0,0,1,34.9,33.3h0Zm0,0"/><path class="cls-1" d="M33.17,32.56a0.46,0.46,0,1,1-.46-0.46,0.46,0.46,0,0,1,.46.46h0Zm0,0"/></svg>